<svg id="Logo" xmlns="http://www.w3.org/2000/svg" viewBox="0 0 199 199"><defs><style>.cls-1{fill:#27ae60;}.cls-2{fill:#333;fill-opacity:0.2;}.cls-3{fill:#fff;}</style></defs><title>logo</title><path id="circle" class="cls-1" d="M199,99.5A99.5,99.5,0,1,1,99.5,0,99.5,99.5,0,0,1,199,99.5Z"/><path id="Shadow" class="cls-2" d="M140,85.43h-8q-1.47-9.72-8.26-15.31Q115.18,63,97.83,63H71.17V85.43H63v14.93h8.17V156H86.3V121.2h9.63q17.54,0,27-7.76a24.72,24.72,0,0,0,8.36-13.08H140Zm-28.56,18.91q-5.45,4.07-17.1,4.07h-8V75.72H96.81q10.32,0,15.2,3.94t4.88,12Q116.89,100.28,111.44,104.35Z"/><path id="P" class="cls-3" d="M145,80.43h-8q-1.47-9.72-8.26-15.31-8.61-7.12-26-7.12H76.17V80.43H68V95.36h8.17V151H91.3V116.2h9.63q17.54,0,27-7.76a24.72,24.72,0,0,0,8.36-13.08H145ZM116.44,99.35q-5.45,4.07-17.1,4.07h-8V70.72h10.51q10.32,0,15.2,3.94t4.88,12Q121.89,95.28,116.44,99.35Z"/></svg>